<?xml version="1.0" encoding="UTF-8" standalone="no" ?>
<!DOCTYPE svg PUBLIC "-//W3C//DTD SVG 1.1//EN" "http://www.w3.org/Graphics/SVG/1.1/DTD/svg11.dtd">
<svg xmlns="http://www.w3.org/2000/svg" xmlns:xlink="http://www.w3.org/1999/xlink" version="1.1" width="1080" height="1080" viewBox="0 0 1080 1080" xml:space="preserve">
<desc>Created with Fabric.js 5.2.4</desc>
<defs>
</defs>
<rect x="0" y="0" width="100%" height="100%" fill="transparent"></rect>
<g transform="matrix(1 0 0 1 540 540)" id="0b8e00a9-c426-4473-af2b-437129a6911f"  >
</g>
<g transform="matrix(1 0 0 1 540 540)" id="0f312cd8-d31d-40e5-ad6a-a8ef5a6a8ebf"  >
<rect style="stroke: none; stroke-width: 1; stroke-dasharray: none; stroke-linecap: butt; stroke-dashoffset: 0; stroke-linejoin: miter; stroke-miterlimit: 4; fill: rgb(255,255,255); fill-rule: nonzero; opacity: 1; visibility: hidden;" vector-effect="non-scaling-stroke"  x="-540" y="-540" rx="0" ry="0" width="1080" height="1080" />
</g>
<g transform="matrix(1 0 0 1 808.06 449.61)"  >
<path style="stroke: none; stroke-width: 1; stroke-dasharray: none; stroke-linecap: butt; stroke-dashoffset: 0; stroke-linejoin: miter; stroke-miterlimit: 4; fill: rgb(114,24,250); fill-rule: nonzero; opacity: 0.07;" vector-effect="non-scaling-stroke"  transform=" translate(-654.84, -323.46)" d="M 717.6 416.27 Q 700.325 406.204 692.572 415.726 C 687.403 421.983 684.864 432.593 684.864 447.556 L 684.864 528.173 C 684.864 543.499 683.413 556.194 680.6020000000001 566.26 C 677.791 576.689 672.9850000000001 584.125 666.3650000000001 588.477 C 659.9260000000002 592.92 651.2210000000001 594.0989999999999 640.1570000000002 592.014 Q 623.9700000000001 589.021 599.7120000000001 575.056 L 592 570.613 L 592 507.135 L 601.612 512.667 C 613.129 519.378 620.837 520.1940000000001 624.736 515.297 C 628.817 510.58200000000005 630.903 500.697 630.903 485.73400000000004 L 630.903 414.73400000000004 C 630.903 396.23400000000004 632.717 381.634 636.344 370.843 C 639.9710000000001 360.052 647.1350000000001 353.25100000000003 657.927 350.16700000000003 Q 641.74 326.90700000000004 636.344 304.644 C 632.7170000000001 289.772 630.994 273.086 630.994 254.587 L 630.994 183.587 C 630.994 168.624 628.908 156.47299999999998 624.828 146.951 C 621.019 137.611 613.3109999999999 129.631 601.704 122.91999999999999 L 592.0909999999999 117.38799999999999 L 592.0909999999999 53.9 L 599.7989999999999 58.342999999999996 Q 624.0119999999998 72.354 640.2439999999999 88.08699999999999 C 650.6808856258474 97.93475254334813 659.5222655786022 109.34619516943772 666.4509999999999 121.91199999999996 C 673.1499131845301 133.9825873414749 677.951756202978 147.01201753362653 680.6879999999999 160.54299999999995 C 683.5914148771194 174.68504269981455 685.0197280426917 189.09016074508958 684.9499999999998 203.52699999999984 L 684.9499999999998 284.144 C 684.9499999999998 299.107 687.4889999999998 312.709 692.6579999999998 324.861 C 697.5890157628795 336.8338668569315 706.4049546630034 346.79948111643876 717.6869999999998 353.154 Z" stroke-linecap="round" />
</g>
<g transform="matrix(1 0 0 1 641.11 401.62)"  >
<path style="stroke: none; stroke-width: 1; stroke-dasharray: none; stroke-linecap: butt; stroke-dashoffset: 0; stroke-linejoin: miter; stroke-miterlimit: 4; fill: rgb(114,24,250); fill-rule: nonzero; opacity: 0.07;" vector-effect="non-scaling-stroke"  transform=" translate(-470.74, -270.53)" d="M 407.991 177.829 Q 425.26599999999996 187.895 433.02 178.37300000000002 C 438.18899999999996 172.116 440.728 161.50600000000003 440.728 146.543 L 440.728 65.926 C 440.728 50.601 442.17900000000003 37.905 444.99 27.839 C 447.801 17.409999999999997 452.426 9.884 458.865 5.439 C 465.575 1.087 474.28 -0.092 485.071 1.9 Q 501.67100000000005 5.029 525.878 19.038999999999998 L 533.586 23.482 L 533.586 86.964 L 523.974 81.432 C 512.457 74.721 504.56800000000004 73.815 500.487 78.532 C 496.678 83.432 494.687 93.313 494.687 108.276 L 494.687 179.276 C 494.687 197.776 492.873 212.376 489.24600000000004 223.167 C 485.619 233.867 478.45500000000004 240.76 467.663 243.843 Q 483.85 267.103 489.246 289.366 C 492.873 304.238 494.596 320.924 494.596 339.423 L 494.596 410.423 C 494.596 425.386 496.496 437.537 500.396 446.878 C 504.47700000000003 456.4 512.366 464.471 523.883 471.09 L 533.495 476.62199999999996 L 533.495 540.0999999999999 L 525.787 535.6569999999999 Q 501.574 521.646 484.97900000000004 505.7319999999999 C 474.641066032736 495.7948910902833 465.811974246999 484.3993086255772 458.77200000000005 471.9069999999999 C 452.2640142873911 459.85023291772967 447.58804996721483 446.891401426395 444.898 433.457 C 441.99452812979644 419.31496595239156 440.56621437486893 404.9098419632308 440.63599999999997 390.47299999999996 L 440.636 309.864 C 440.636 294.90099999999995 438.09700000000004 281.299 432.928 269.147 C 427.9974412188255 257.1741624077371 419.1818200425464 247.20850914177635 407.9 240.85399999999998 Z" stroke-linecap="round" />
</g>
<g transform="matrix(1 0 0 1 771.78 476.82)"  >
<path style="stroke: none; stroke-width: 1; stroke-dasharray: none; stroke-linecap: butt; stroke-dashoffset: 0; stroke-linejoin: miter; stroke-miterlimit: 4; fill: rgb(114,24,250); fill-rule: nonzero; opacity: 0.4;" vector-effect="non-scaling-stroke"  transform=" translate(-614.84, -353.46)" d="M 677.6 446.27 Q 660.325 436.204 652.571 445.726 C 647.402 451.983 644.863 462.593 644.863 477.556 L 644.863 558.173 C 644.863 573.498 643.412 586.194 640.6010000000001 596.26 C 637.7900000000001 606.689 632.9840000000002 614.125 626.3640000000001 618.477 C 619.9260000000002 622.92 611.2200000000001 624.0989999999999 600.1570000000002 622.014 Q 583.9700000000001 619.022 559.7120000000001 605.056 L 552 600.613 L 552 537.135 L 561.612 542.667 C 573.129 549.378 580.837 550.1940000000001 584.736 545.297 C 588.817 540.581 590.902 530.697 590.902 515.734 L 590.902 444.73400000000004 C 590.902 426.23400000000004 592.716 411.634 596.3430000000001 400.843 C 599.9700000000001 390.052 607.1340000000001 383.25 617.926 380.16700000000003 Q 601.739 356.90700000000004 596.3430000000001 334.644 C 592.7160000000001 319.772 590.993 303.086 590.993 284.587 L 590.993 213.587 C 590.993 198.624 588.907 186.47299999999998 584.827 176.951 C 581.018 167.611 573.31 159.631 561.703 152.92 L 552.091 147.38799999999998 L 552.091 83.9 L 559.799 88.343 Q 584.012 102.354 600.244 118.087 C 610.6809097443098 127.93473066196462 619.5222927906341 139.34617728088017 626.451 151.91199999999998 C 633.1499855636171 163.9825541576936 637.9518328062076 177.01199581173012 640.688 190.54300000000003 C 643.5913507651507 204.68505243261038 645.0196632677801 219.09016379183697 644.9499999999999 233.52699999999987 L 644.9499999999999 314.144 C 644.9499999999999 329.107 647.4889999999999 342.709 652.6579999999999 354.861 C 657.588814933945 366.8339920586913 666.4048059011081 376.79966517523405 677.6869999999999 383.154 Z" stroke-linecap="round" />
</g>
<g transform="matrix(1 0 0 1 604.84 428.82)"  >
<path style="stroke: none; stroke-width: 1; stroke-dasharray: none; stroke-linecap: butt; stroke-dashoffset: 0; stroke-linejoin: miter; stroke-miterlimit: 4; fill: rgb(114,24,250); fill-rule: nonzero; opacity: 0.4;" vector-effect="non-scaling-stroke"  transform=" translate(-430.74, -300.53)" d="M 367.991 207.829 Q 385.26599999999996 217.895 393.02 208.37300000000002 C 398.18899999999996 202.116 400.728 191.50600000000003 400.728 176.543 L 400.728 95.926 C 400.728 80.601 402.17900000000003 67.905 404.99 57.839 C 407.801 47.41 412.426 39.884 418.865 35.439 C 425.576 31.086 434.281 29.907 445.072 31.902 Q 461.672 35.031 485.879 49.041 L 493.58700000000005 53.483999999999995 L 493.58700000000005 116.96199999999999 L 483.975 111.42999999999999 C 472.458 104.719 464.569 103.81299999999999 460.488 108.52999999999999 C 456.679 113.42999999999999 454.688 123.31099999999999 454.688 138.274 L 454.688 209.274 C 454.688 227.774 452.87399999999997 242.374 449.247 253.165 C 445.62 263.865 438.456 270.758 427.664 273.841 Q 443.851 297.101 449.24699999999996 319.36400000000003 C 452.87399999999997 334.23600000000005 454.597 350.922 454.597 369.42100000000005 L 454.597 440.42600000000004 C 454.597 455.38900000000007 456.49699999999996 467.54 460.397 476.88100000000003 C 464.478 486.403 472.367 494.47400000000005 483.884 501.093 L 493.49600000000004 506.625 L 493.49600000000004 570.103 L 485.788 565.659 Q 461.576 551.648 444.981 535.734 C 434.64307672335804 525.7968814812155 425.8139862217533 514.4013006739204 418.774 501.90900000000005 C 412.26574888211366 489.8522530051313 407.5894511808401 476.893431627548 404.899 463.45900000000006 C 401.99559224670713 449.31695621871484 400.56727915479934 434.91183891637695 400.63699999999994 420.475 L 400.637 339.864 C 400.637 324.90099999999995 398.098 311.299 392.929 299.147 C 387.9981181203893 287.17404967662475 379.1821445098797 277.2083961801947 367.9 270.854 Z" stroke-linecap="round" />
</g>
<g transform="matrix(1 0 0 1 418.21 373.47)"  >
<path style="stroke: none; stroke-width: 1; stroke-dasharray: none; stroke-linecap: butt; stroke-dashoffset: 0; stroke-linejoin: miter; stroke-miterlimit: 4; fill: rgb(114,24,250); fill-rule: nonzero; opacity: 0.15;" vector-effect="non-scaling-stroke"  transform=" translate(-223.43, -243.53)" d="M 145.991 13.2 L 300.96900000000005 102.7 L 300.87800000000004 473.866 L 145.9 384.366 Z" stroke-linecap="round" />
</g>
<g transform="matrix(1 0 0 1 373.28 252.87)"  >
<path style="stroke: none; stroke-width: 1; stroke-dasharray: none; stroke-linecap: butt; stroke-dashoffset: 0; stroke-linejoin: miter; stroke-miterlimit: 4; fill: rgb(0,102,204); fill-rule: nonzero; opacity: 1;" vector-effect="non-scaling-stroke"  transform=" translate(-175.52, -128.79)" d="M 113.9 76.1 L 237.139 147.286 L 237.139 181.474 L 113.9 110.288 Z" stroke-linecap="round" />
</g>
<g transform="matrix(1 0 0 1 419.12 409.3)"  >
<path style="stroke: none; stroke-width: 1; stroke-dasharray: none; stroke-linecap: butt; stroke-dashoffset: 0; stroke-linejoin: miter; stroke-miterlimit: 4; fill: rgb(114,24,250); fill-rule: nonzero; opacity: 0.15;" vector-effect="non-scaling-stroke"  transform=" translate(-226.32, -300.46)" d="M 167.1 239.7 L 285.532 308.075 L 285.532 361.215 L 167.1 292.84 Z" stroke-linecap="round" />
</g>
<g transform="matrix(1 0 0 1 419.12 324.65)"  >
<path style="stroke: none; stroke-width: 1; stroke-dasharray: none; stroke-linecap: butt; stroke-dashoffset: 0; stroke-linejoin: miter; stroke-miterlimit: 4; fill: rgb(114,24,250); fill-rule: nonzero; opacity: 0.15;" vector-effect="non-scaling-stroke"  transform=" translate(-226.31, -209.2)" d="M 167 168.8 L 285.61400000000003 237.26600000000002 L 285.61400000000003 249.6 L 167 181.224 Z" stroke-linecap="round" />
</g>
<g transform="matrix(1 0 0 1 411.09 344.14)"  >
<path style="stroke: none; stroke-width: 1; stroke-dasharray: none; stroke-linecap: butt; stroke-dashoffset: 0; stroke-linejoin: miter; stroke-miterlimit: 4; fill: rgb(114,24,250); fill-rule: nonzero; opacity: 0.15;" vector-effect="non-scaling-stroke"  transform=" translate(-218.28, -231.17)" d="M 167 195.4 L 269.563 254.616 L 269.563 266.949 L 167 207.733 Z" stroke-linecap="round" />
</g>
<g transform="matrix(1 0 0 1 418.26 212.78)"  >
<path style="stroke: none; stroke-width: 1; stroke-dasharray: none; stroke-linecap: butt; stroke-dashoffset: 0; stroke-linejoin: miter; stroke-miterlimit: 4; fill: rgb(114,24,250); fill-rule: nonzero; opacity: 0.2;" vector-effect="non-scaling-stroke"  transform=" translate(-223.49, -82.84)" d="M 146 13.2 L 300.978 102.7 L 300.978 152.485 L 146 62.985 Z" stroke-linecap="round" />
</g>
<g transform="matrix(1 0 0 1 369.65 184.99)"  >
<path style="stroke: none; stroke-width: 1; stroke-dasharray: none; stroke-linecap: butt; stroke-dashoffset: 0; stroke-linejoin: miter; stroke-miterlimit: 4; fill: rgb(171,115,255); fill-rule: nonzero; opacity: 0.2;" vector-effect="non-scaling-stroke"  transform=" translate(-176.84, -57.83)" d="M 186.678 63.5 C 186.678 71.027 182.23499999999999 74.563 176.79399999999998 71.48 C 171.353 68.307 167 59.693 167 52.166 C 167 44.638999999999996 171.443 41.102999999999994 176.88400000000001 44.18599999999999 C 182.235 47.36 186.678 55.974 186.678 63.5 Z" stroke-linecap="round" />
</g>
<g transform="matrix(1 0 0 1 608.64 717.62)"  >
<path style="stroke: none; stroke-width: 1; stroke-dasharray: none; stroke-linecap: butt; stroke-dashoffset: 0; stroke-linejoin: miter; stroke-miterlimit: 4; fill: rgb(114,24,250); fill-rule: nonzero; opacity: 0.15;" vector-effect="non-scaling-stroke"  transform=" translate(-433.43, -623.03)" d="M 355.991 392.7 L 510.969 482.2 L 510.878 853.367 L 355.9 763.866 Z" stroke-linecap="round" />
</g>
<g transform="matrix(1 0 0 1 651.82 647.89)"  >
<path style="stroke: none; stroke-width: 1; stroke-dasharray: none; stroke-linecap: butt; stroke-dashoffset: 0; stroke-linejoin: miter; stroke-miterlimit: 4; fill: rgb(0,102,204); fill-rule: nonzero; opacity: 1;" vector-effect="non-scaling-stroke"  transform=" translate(-482.67, -564.4)" d="M 421.091 511.8 L 544.33 582.9 L 544.33 617 L 421 545.9 Z" stroke-linecap="round" />
</g>
<g transform="matrix(1 0 0 1 609.6 691.33)"  >
<path style="stroke: none; stroke-width: 1; stroke-dasharray: none; stroke-linecap: butt; stroke-dashoffset: 0; stroke-linejoin: miter; stroke-miterlimit: 4; fill: rgb(114,24,250); fill-rule: nonzero; opacity: 0.15;" vector-effect="non-scaling-stroke"  transform=" translate(-436.36, -611.46)" d="M 377.1 550.7 L 495.62300000000005 619.166 L 495.62300000000005 672.216 L 377.1 603.75 Z" stroke-linecap="round" />
</g>
<g transform="matrix(1 0 0 1 609.47 746.78)"  >
<path style="stroke: none; stroke-width: 1; stroke-dasharray: none; stroke-linecap: butt; stroke-dashoffset: 0; stroke-linejoin: miter; stroke-miterlimit: 4; fill: rgb(114,24,250); fill-rule: nonzero; opacity: 0.15;" vector-effect="non-scaling-stroke"  transform=" translate(-436.21, -674.7)" d="M 376.9 634.3 L 495.514 702.766 L 495.514 715.1 L 376.9 646.724 Z" stroke-linecap="round" />
</g>
<g transform="matrix(1 0 0 1 601.44 764.46)"  >
<path style="stroke: none; stroke-width: 1; stroke-dasharray: none; stroke-linecap: butt; stroke-dashoffset: 0; stroke-linejoin: miter; stroke-miterlimit: 4; fill: rgb(114,24,250); fill-rule: nonzero; opacity: 0.15;" vector-effect="non-scaling-stroke"  transform=" translate(-428.18, -694.67)" d="M 376.9 658.9 L 479.46299999999997 718.116 L 479.46299999999997 730.449 L 376.9 671.233 Z" stroke-linecap="round" />
</g>
<g transform="matrix(1 0 0 1 608.69 556.93)"  >
<path style="stroke: none; stroke-width: 1; stroke-dasharray: none; stroke-linecap: butt; stroke-dashoffset: 0; stroke-linejoin: miter; stroke-miterlimit: 4; fill: rgb(114,24,250); fill-rule: nonzero; opacity: 0.2;" vector-effect="non-scaling-stroke"  transform=" translate(-433.49, -462.34)" d="M 356 392.7 L 510.978 482.2 L 510.978 531.985 L 356 442.485 Z" stroke-linecap="round" />
</g>
<g transform="matrix(1 0 0 1 560.09 529.23)"  >
<path style="stroke: none; stroke-width: 1; stroke-dasharray: none; stroke-linecap: butt; stroke-dashoffset: 0; stroke-linejoin: miter; stroke-miterlimit: 4; fill: rgb(114,24,250); fill-rule: nonzero; opacity: 0.2;" vector-effect="non-scaling-stroke"  transform=" translate(-386.84, -437.43)" d="M 396.678 443.1 C 396.678 450.627 392.234 454.163 386.794 451.08000000000004 C 381.353 447.90600000000006 377 439.29100000000005 377 431.76400000000007 C 377 424.2370000000001 381.443 420.7010000000001 386.884 423.78400000000005 C 392.235 426.869 396.678 435.574 396.678 443.1 Z" stroke-linecap="round" />
</g>
<g transform="matrix(1 0 0 1 369.56 541.97)"  >
<path style="stroke: none; stroke-width: 1; stroke-dasharray: none; stroke-linecap: butt; stroke-dashoffset: 0; stroke-linejoin: miter; stroke-miterlimit: 4; fill: rgb(114,24,250); fill-rule: nonzero; opacity: 0.3;" vector-effect="non-scaling-stroke"  transform=" translate(-163.88, -436.67)" d="M 298.683 433.4 L 28.9 277.7 L 28.991 418.35 L 275.014 560.36 L 298.86400000000003 595.636 Z" stroke-linecap="round" />
</g>
<g transform="matrix(1 0 0 1 405.42 522.02)"  >
<path style="stroke: none; stroke-width: 1; stroke-dasharray: none; stroke-linecap: butt; stroke-dashoffset: 0; stroke-linejoin: miter; stroke-miterlimit: 4; fill: rgb(114,24,250); fill-rule: nonzero; opacity: 0.15;" vector-effect="non-scaling-stroke"  transform=" translate(-214.26, -428.62)" d="M 243.825 439.5 L 184.7 405.4 L 184.7 417.733 L 243.825 451.833 Z" stroke-linecap="round" />
</g>
<g transform="matrix(1 0 0 1 361.86 521.56)"  >
<path style="stroke: none; stroke-width: 1; stroke-dasharray: none; stroke-linecap: butt; stroke-dashoffset: 0; stroke-linejoin: miter; stroke-miterlimit: 4; fill: rgb(114,24,250); fill-rule: nonzero; opacity: 0.15;" vector-effect="non-scaling-stroke"  transform=" translate(-161.73, -425.52)" d="M 234.863 461.617 L 88.5 377.1 L 88.5 389.43300000000005 L 234.953 473.95 Z" stroke-linecap="round" />
</g>
<g transform="matrix(1 0 0 1 346.71 537.58)"  >
<path style="stroke: none; stroke-width: 1; stroke-dasharray: none; stroke-linecap: butt; stroke-dashoffset: 0; stroke-linejoin: miter; stroke-miterlimit: 4; fill: rgb(114,24,250); fill-rule: nonzero; opacity: 0.15;" vector-effect="non-scaling-stroke"  transform=" translate(-143.47, -442.28)" d="M 231.842 487.119 L 55.1 385.1 L 55.1 397.43300000000005 L 231.842 499.452 Z" stroke-linecap="round" />
</g>
<g transform="matrix(1 0 0 1 464.92 563.05)"  >
<path style="stroke: none; stroke-width: 1; stroke-dasharray: none; stroke-linecap: butt; stroke-dashoffset: 0; stroke-linejoin: miter; stroke-miterlimit: 4; fill: rgb(0,102,204); fill-rule: nonzero; opacity: 1;" vector-effect="non-scaling-stroke"  transform=" translate(-281.33, -473.91)" d="M 266 465.067 C 266 476.674 272.892 490.005 281.326 494.902 C 289.76000000000005 499.799 296.651 494.358 296.651 482.751 C 296.651 471.14399999999995 289.759 457.813 281.326 452.916 C 272.8 448.018 266 453.459 266 465.067 Z" stroke-linecap="round" />
</g>
<g transform="matrix(1 0 0 1 258.52 307.64)"  >
<path style="stroke: none; stroke-width: 1; stroke-dasharray: none; stroke-linecap: butt; stroke-dashoffset: 0; stroke-linejoin: miter; stroke-miterlimit: 4; fill: rgb(114,24,250); fill-rule: nonzero; opacity: 0.15;" vector-effect="non-scaling-stroke"  transform=" translate(-51.91, -188.83)" d="M 54.629 165.437 L 18.9 144.761 L 18.9 132.7 L 54.629 153.37599999999998 C 65.21346495327556 160.07380049581127 71.7733289264218 171.5974198250948 72.12899999999999 184.11799999999997 C 72.12899999999999 192.64199999999997 69.95299999999999 197.44799999999998 65.87199999999999 198.89899999999997 C 61.97199999999999 200.16899999999998 57.43799999999999 197.99199999999996 54.62699999999999 196.35999999999999 L 39.935999999999986 187.83599999999998 L 39.844999999999985 187.74499999999998 C 38.57499999999998 187.01999999999998 36.579999999999984 186.29399999999998 35.03899999999999 186.74499999999998 C 33.768999999999984 187.10799999999998 32.22799999999999 188.468 32.22799999999999 193.18299999999996 C 32.08567671639872 196.51039948143023 33.04142805810584 199.79228092685102 34.947999999999986 202.52299999999997 C 36.20052091014169 204.318490597772 37.843676502306344 205.80676697993863 39.753999999999984 206.87599999999998 L 39.93499999999998 206.96699999999998 L 84.917 232.9 L 84.917 244.961 L 40.21 219.121 C 35.70194213491565 216.57176529087837 31.827351168400522 213.03797425322216 28.875 208.78300000000002 C 24.3252570805233 202.4676410104193 21.852695203131358 194.8933889159012 21.799999999999997 187.11 C 21.8 178.858 24.7 174.596 28.783 173.417 C 32.592 172.329 37.035000000000004 173.961 40.118 175.775 L 54.718 184.209 C 56.804 185.388 58.43600000000001 185.93200000000002 59.434000000000005 185.56900000000002 C 60.25000000000001 185.29700000000003 61.70100000000001 184.11800000000002 61.70100000000001 178.04200000000003 C 61.78017848945684 175.05946690522177 60.889210515369726 172.13180018296546 59.162000000000006 169.69900000000004 C 57.946423479051006 167.99367095540634 56.40593387576406 166.54527768622282 54.629 165.437 Z" stroke-linecap="round" />
</g>
<g transform="matrix(1 0 0 1 222.61 257.04)"  >
<path style="stroke: none; stroke-width: 1; stroke-dasharray: none; stroke-linecap: butt; stroke-dashoffset: 0; stroke-linejoin: miter; stroke-miterlimit: 4; fill: rgb(0,102,204); fill-rule: nonzero; opacity: 1;" vector-effect="non-scaling-stroke"  transform=" translate(-14.31, -136.72)" d="M 27.823 144.52 C 27.823 154.858 21.747 159.66400000000002 14.311 155.40200000000002 C 6.875 151.14000000000001 0.8 139.26 0.8 128.923 C 0.8 118.58600000000001 6.8759999999999994 113.779 14.312000000000001 118.041 C 21.748 122.393 27.823 134.273 27.823 144.52 Z" stroke-linecap="round" />
</g>
<g transform="matrix(1 0 0 1 294.25 356.79)"  >
<path style="stroke: none; stroke-width: 1; stroke-dasharray: none; stroke-linecap: butt; stroke-dashoffset: 0; stroke-linejoin: miter; stroke-miterlimit: 4; fill: rgb(0,102,204); fill-rule: nonzero; opacity: 1;" vector-effect="non-scaling-stroke"  transform=" translate(-93.31, -246.72)" d="M 106.824 254.52 C 106.824 264.858 100.748 269.664 93.312 265.402 C 85.87599999999999 261.14 79.8 249.26 79.8 238.923 C 79.8 228.586 85.87599999999999 223.779 93.312 228.041 C 100.748 232.393 106.824 244.273 106.824 254.52 Z" stroke-linecap="round" />
</g>
<g transform="matrix(1 0 0 1 404.16 730.29)"  >
<path style="stroke: none; stroke-width: 1; stroke-dasharray: none; stroke-linecap: butt; stroke-dashoffset: 0; stroke-linejoin: miter; stroke-miterlimit: 4; fill: rgb(114,24,250); fill-rule: nonzero; opacity: 0.2;" vector-effect="non-scaling-stroke"  transform=" translate(-212.01, -655.35)" d="M 212.006 604.96 C 217.447 608.134 221.8 615.6600000000001 221.8 622.008 L 221.8 649.666 L 240.11800000000002 660.1850000000001 C 245.55900000000003 663.359 249.91200000000003 670.8850000000001 249.91200000000003 677.2330000000001 C 249.91200000000003 683.49 245.46800000000005 686.033 240.11800000000002 682.946 L 221.8 672.428 L 221.8 700.086 C 221.8 706.343 217.357 708.886 212.006 705.799 C 206.565 702.625 202.212 695.0989999999999 202.212 688.751 L 202.212 661.093 L 183.89399999999998 650.574 C 178.45299999999997 647.4 174.09999999999997 639.8739999999999 174.09999999999997 633.526 C 174.09999999999997 627.269 178.54299999999998 624.726 183.89399999999998 627.813 L 202.212 638.332 L 202.212 610.673 C 202.212 604.325 206.565 601.786 212.006 604.96 Z" stroke-linecap="round" />
</g>
<g transform="matrix(0 0 0 0 0 0)"  >
<g style=""   >
</g>
</g>
<g transform="matrix(0 0 0 0 0 0)"  >
<g style=""   >
</g>
</g>
<g transform="matrix(0 0 0 0 0 0)"  >
<g style=""   >
</g>
</g>
<g transform="matrix(0 0 0 0 0 0)"  >
<g style=""   >
</g>
</g>
<g transform="matrix(0 0 0 0 0 0)"  >
<g style=""   >
</g>
</g>
<g transform="matrix(NaN NaN NaN NaN 0 0)"  >
<g style=""   >
</g>
</g>
<g transform="matrix(NaN NaN NaN NaN 0 0)"  >
<g style=""   >
</g>
</g>
<g transform="matrix(NaN NaN NaN NaN 0 0)"  >
<g style=""   >
</g>
</g>
<g transform="matrix(NaN NaN NaN NaN 0 0)"  >
<g style=""   >
</g>
</g>
<g transform="matrix(NaN NaN NaN NaN 0 0)"  >
<g style=""   >
</g>
</g>
<g transform="matrix(NaN NaN NaN NaN 0 0)"  >
<g style=""   >
</g>
</g>
<g transform="matrix(NaN NaN NaN NaN 0 0)"  >
<g style=""   >
</g>
</g>
<g transform="matrix(NaN NaN NaN NaN 0 0)"  >
<g style=""   >
</g>
</g>
<g transform="matrix(NaN NaN NaN NaN 0 0)"  >
<g style=""   >
</g>
</g>
<g transform="matrix(NaN NaN NaN NaN 0 0)"  >
<g style=""   >
</g>
</g>
<g transform="matrix(NaN NaN NaN NaN 0 0)"  >
<g style=""   >
</g>
</g>
<g transform="matrix(NaN NaN NaN NaN 0 0)"  >
<g style=""   >
</g>
</g>
<g transform="matrix(NaN NaN NaN NaN 0 0)"  >
<g style=""   >
</g>
</g>
<g transform="matrix(NaN NaN NaN NaN 0 0)"  >
<g style=""   >
</g>
</g>
<g transform="matrix(NaN NaN NaN NaN 0 0)"  >
<g style=""   >
</g>
</g>
<g transform="matrix(NaN NaN NaN NaN 0 0)"  >
<g style=""   >
</g>
</g>
</svg>